PathFileType	4	(X/Y/Z)	C:\Git\1_current_projects\powerlifing_model\simulations\Athlete_03\25_03_31\Walking_01\markers_experimental.trc
DataRate	CameraRate	NumFrames	NumMarkers	Units	OrigDataRate	OrigDataStartFrame	OrigNumFrames
200.000000	200.000000	4	53	mm	200.000000	179	239
Frame#	Time	GLAB			RFHD			LFHD			C7			T6			SPINMOL			SPINM2			SPINM3			T12			BELTOL			BELT2			BELT3			SACROL			SACR2			SACR3			LTHOL			LTH2			LTH3			LSHAOL			LSHA2			LSHA3			LHEE			LTOE			LM5			RTHOL			RTH2			RTH3			RSHAOL			RSHA2			RSHA3			RHEE			RTOE			RM5			STRN			XIPH			LACR			LUAOL			LUA2			LUA3			LLAOL			LLA2			LLA3			LWRR			LWRU			RACR			RUAOL			RUA2			RUA3			RLAOL			RLA2			RLA3			RWRR			RWRU			
		X1	Y1	Z1	X2	Y2	Z2	X3	Y3	Z3	X4	Y4	Z4	X5	Y5	Z5	X6	Y6	Z6	X7	Y7	Z7	X8	Y8	Z8	X9	Y9	Z9	X10	Y10	Z10	X11	Y11	Z11	X12	Y12	Z12	X13	Y13	Z13	X14	Y14	Z14	X15	Y15	Z15	X16	Y16	Z16	X17	Y17	Z17	X18	Y18	Z18	X19	Y19	Z19	X20	Y20	Z20	X21	Y21	Z21	X22	Y22	Z22	X23	Y23	Z23	X24	Y24	Z24	X25	Y25	Z25	X26	Y26	Z26	X27	Y27	Z27	X28	Y28	Z28	X29	Y29	Z29	X30	Y30	Z30	X31	Y31	Z31	X32	Y32	Z32	X33	Y33	Z33	X34	Y34	Z34	X35	Y35	Z35	X36	Y36	Z36	X37	Y37	Z37	X38	Y38	Z38	X39	Y39	Z39	X40	Y40	Z40	X41	Y41	Z41	X42	Y42	Z42	X43	Y43	Z43	X44	Y44	Z44	X45	Y45	Z45	X46	Y46	Z46	X47	Y47	Z47	X48	Y48	Z48	X49	Y49	Z49	X50	Y50	Z50	X51	Y51	Z51	X52	Y52	Z52	X53	Y53	Z53	

180	0.895	173.138412475586	1610.408325195313	-694.7680664062501	235.9885406494141	1637.49267578125	-642.7233276367189	97.87738037109378	1630.919555664063	-653.2373657226564	164.5109558105469	1448.25927734375	-470.1651306152345	162.3578796386719	1278.988403320313	-412.0191040039064	141.6948699951172	1238.331298828125	-404.6262817382814	191.2338562011719	1231.728515625	-397.9926147460939	158.9800872802735	1174.557739257813	-409.5103454589845	163.5104675292969	1109.449951171875	-434.4529113769532	149.3319549560547	1075.390014648438	-397.1370239257814	199.8392486572266	1074.446899414063	-395.4174194335939	171.9268493652344	1014.014587402344	-390.9012145996095	157.1734619140625	962.6609497070315	-406.9913635253907	208.4894561767579	962.4053955078127	-411.0876464843751	183.8771362304688	903.0354003906252	-394.7048339843751	6.701439857482912	678.8405761718751	-498.8224182128907	38.66927337646485	625.4356689453126	-449.5013122558595	23.70946502685547	619.6217651367189	-496.9611816406251	33.49378204345704	321.5379028320313	-479.3227539062501	47.85190582275391	261.3165893554688	-429.1753845214845	43.53146743774415	260.1716613769532	-479.3131713867189	143.1376953125	72.03139495849611	-406.3572082519532	129.1875610351563	44.67284774780274	-623.9256591796876	30.51652908325196	31.81051635742188	-570.2614746093751	387.2430419921876	689.5750732421876	-570.8167114257814	399.528778076172	660.9848632812501	-643.5033569335939	383.8419189453126	637.5792846679689	-602.7597045898439	371.6366577148438	406.8520507812501	-568.4878540039064	362.6865844726563	328.9309692382813	-565.4505615234376	348.3893737792969	362.1283874511719	-531.7944946289064	213.2510833740235	197.7821350097657	-415.2954101562501	255.3777008056641	78.35237121582033	-586.1871337890626	341.4927368164063	88.00778961181642	-516.9524536132814	172.0891876220703	1348.236938476563	-639.7985229492189	175.376693725586	1203.914916992188	-655.8549804687501	-6.788673400878908	1408.747680664063	-552.1866455078126	-108.8101119995117	1254.086303710938	-556.7692260742189	-128.4317016601563	1191.677978515625	-548.4998779296876	-104.116683959961	1199.171508789063	-593.0181274414064	-151.651611328125	995.3653564453127	-615.5099487304689	-135.0483703613282	921.5530395507815	-593.1162109375001	-147.7595977783203	938.4395141601565	-638.3782348632814	-143.3788299560547	846.0256347656252	-685.4066162109376	-76.65773773193361	863.9387207031252	-725.1493530273439	338.1893920898438	1406.643188476563	-549.9794311523439	439.891326904297	1260.965698242188	-524.3104858398439	449.9734497070314	1198.927490234375	-545.8068847656251	461.0783081054689	1205.109619140625	-495.8618164062501	500.417205810547	986.3272705078127	-525.2830200195314	530.2304687500001	936.0129394531252	-579.7119750976564	506.3822631835939	924.6834106445315	-537.6304321289064	524.4950561523439	844.894714355469	-576.8683471679689	453.5410156250001	826.1882324218752	-612.3884277343751	
181	0.9	173.3466033935547	1610.37353515625	-701.1621704101564	236.2188873291016	1637.353271484375	-649.0896606445314	98.09877777099612	1631.047729492188	-659.6793823242189	164.3394622802735	1448.328247070313	-476.5328674316407	162.08544921875	1279.075805664063	-418.3047485351564	141.4261474609375	1238.418823242188	-410.8760986328126	190.955810546875	1231.817016601563	-404.2870483398439	158.7332153320313	1174.651611328125	-415.7532348632814	163.3697509765625	1109.5390625	-440.6707763671876	149.5087585449219	1075.345703125	-403.1184387207032	200.0145416259766	1074.44482421875	-401.5592651367189	172.1666107177735	1013.990234375	-396.9776000976564	157.4446105957032	962.771911621094	-412.9792785644532	208.7959594726563	962.5401000976565	-417.220672607422	184.1669616699219	903.1060180664065	-400.9174804687501	6.495622158050539	679.3135986328126	-502.5731506347657	38.59902572631837	626.3598632812501	-452.8231506347657	23.56610107421875	620.1137695312501	-500.2053222656251	33.55665588378907	321.9654235839844	-480.4389648437501	47.99541854858399	261.9757995605469	-430.0485839843751	43.6022071838379	260.5957031250001	-480.1854248046876	143.2917785644532	72.56780242919923	-406.571014404297	129.1712493896485	44.63909149169923	-624.0604858398439	30.540189743042	31.80725669860841	-570.3110961914064	387.4317016601564	690.0147705078126	-579.5435180664064	398.5505981445314	662.0278930664064	-652.6749267578126	383.6025695800782	638.3395996093751	-611.7539672851564	370.9490051269532	404.0860595703126	-580.4766235351564	361.7407531738282	326.0979919433594	-579.8010864257814	347.8880920410157	358.3265991210938	-544.9666137695314	213.1350860595704	190.3676452636719	-432.7096557617189	255.0420684814454	77.08025360107423	-607.7740478515626	341.3181762695313	84.34087371826173	-538.4384765625001	171.9405670166016	1348.251831054688	-646.1273193359376	174.9969787597657	1203.903686523438	-661.9419555664064	-6.907098770141603	1409.015258789063	-558.5669555664064	-109.1911239624024	1254.668701171875	-563.7551879882814	-128.9458160400391	1192.269653320313	-555.7534179687501	-104.5772094726563	1199.916259765625	-600.2333374023439	-152.1582183837891	996.420593261719	-624.6601562500001	-135.4399108886719	922.3477172851565	-603.2653198242189	-148.0715789794922	939.8442993164065	-648.3230590820314	-143.2760467529297	848.098327636719	-696.6536254882814	-76.60826873779298	866.8369750976565	-736.0611572265626	338.0693054199219	1406.529296875	-556.2048339843751	439.6854858398439	1260.895263671875	-529.6110839843751	449.8665466308595	1198.76318359375	-550.7511596679689	460.6434631347657	1205.16357421875	-500.7669982910157	500.2741088867189	986.410095214844	-528.5057373046876	530.7810668945314	935.6765747070315	-582.1297607421876	506.4443969726564	924.644714355469	-540.3427734375001	525.1036987304689	844.540710449219	-578.5714721679689	454.6117248535157	825.4317626953127	-614.7631225585939	
182	0.905	173.5704650878907	1610.280639648438	-707.5656738281251	236.4642486572266	1637.157104492188	-655.4658813476564	98.33596801757815	1631.114624023438	-666.1303100585939	164.1847686767578	1448.342163085938	-482.907684326172	161.8525848388672	1279.112548828125	-424.5885620117189	141.2015533447266	1238.454467773438	-417.1198120117189	190.7241973876953	1231.859741210938	-410.5745544433595	158.5348358154297	1174.69482421875	-421.9874877929689	163.2843017578125	1109.577758789063	-446.8775024414064	149.7486419677735	1075.257446289063	-409.0952758789064	200.2520294189454	1074.390869140625	-407.7026672363282	172.458984375	1013.918151855469	-403.0449829101564	157.7674713134766	962.8438110351565	-418.9537963867189	209.1558990478516	962.6163330078127	-423.3345336914064	184.4825134277344	903.1235961914065	-407.1289367675782	6.281817913055422	679.7551269531251	-506.3848266601564	38.47709274291993	627.2413940429689	-456.1981201171876	23.40520858764649	620.5781250000001	-503.5102844238282	33.61346817016602	322.3977661132813	-481.602264404297	48.1313934326172	262.6484069824219	-430.9598388671876	43.66587448120118	261.0249633789063	-481.0937805175782	143.43994140625	73.13388824462892	-406.7837524414064	129.1489410400391	44.60594940185548	-624.1975708007814	30.56389045715333	31.80436897277833	-570.3634643554689	387.5721130371095	690.3695678710939	-588.1657714843751	397.5649719238282	662.9370727539064	-661.7185668945314	383.3029785156251	638.9945678710939	-620.6237182617189	370.2313537597657	401.2435607910157	-592.3948364257814	360.8608398437501	323.2492065429688	-594.0966796875001	347.3739013671876	354.4477844238282	-558.1262207031251	213.1242218017579	182.9008026123047	-450.3649902343751	254.7975006103516	75.87820434570314	-629.3640136718751	341.2495422363282	80.75229644775392	-560.0056762695314	171.8108673095703	1348.199584960938	-652.4625244140626	174.6373748779297	1203.822021484375	-668.0083618164064	-7.004754543304445	1409.212158203125	-564.9562377929689	-109.5493392944336	1255.18994140625	-570.7366333007814	-129.4275360107422	1192.801513671875	-562.9978027343751	-105.0196914672852	1200.601928710938	-607.4458007812501	-152.6452331542969	997.4365844726565	-633.7938232421876	-135.8132781982422	923.1156005859377	-613.3959960937501	-148.3631439208985	941.218688964844	-658.2411499023439	-143.1489410400391	850.1538085937502	-707.8583984375001	-76.53524780273439	869.7130126953127	-746.9147338867189	337.9689025878907	1406.359619140625	-562.4295043945314	439.4948730468751	1260.778442382813	-534.9185180664064	449.7791442871095	1198.557250976563	-555.7073974609376	460.2296142578126	1205.171142578125	-505.6877441406251	500.1439208984376	986.4605712890627	-531.7743530273439	531.3270874023439	935.3259277343752	-584.6010131835939	506.5115966796876	924.574401855469	-543.1238403320314	525.7031860351564	844.169128417969	-580.3350219726564	455.6881103515626	824.6824951171877	-617.2283325195314	
183	0.91	173.8096923828125	1610.129150390625	-713.9794311523439	236.7242736816407	1636.903930664063	-661.8531494140626	98.58876800537112	1631.11962890625	-672.5906372070314	164.0478210449219	1448.30078125	-489.2891845703126	161.660888671875	1279.09765625	-430.8714294433595	141.0222625732422	1238.4375	-423.3585815429689	190.5400848388672	1231.85546875	-416.8565979003907	158.3855590820313	1174.686401367188	-428.2146606445314	163.253173828125	1109.5654296875	-453.0744934082032	150.0461730957032	1075.12890625	-415.0729980468751	200.5465545654297	1074.28857421875	-413.8508300781251	172.7979125976563	1013.802429199219	-409.106170654297	158.1370544433594	962.8760375976565	-424.9196777343751	209.5622711181641	962.6338500976565	-429.4363403320314	184.8206787109375	903.0904541015627	-413.3336486816407	6.061925411224367	680.1629028320314	-510.2545166015626	38.31058883666993	628.0788574218751	-459.6255187988282	23.23008346557618	621.0125122070314	-506.874969482422	33.66467666625977	322.8334045410157	-482.8098144531251	48.2611541748047	263.3332824707032	-431.9060668945314	43.72262954711915	261.4580383300782	-482.0350952148439	143.5828552246094	73.72578430175783	-406.9961242675782	129.1205444335938	44.5733985900879	-624.3352661132814	30.58751106262208	31.80218696594239	-570.4166259765626	387.6543579101564	690.6329956054689	-596.6762084960939	396.5720214843751	663.7025146484376	-670.6267089843751	382.9349060058594	639.5358276367189	-629.3635864257814	369.4818725585938	398.3364562988282	-604.2348022460939	360.0477294921876	320.3983459472657	-608.3245849609376	346.8445434570313	350.5086059570313	-571.2660522460939	213.2130737304688	175.4134063720703	-468.2586669921876	254.651596069336	74.76200103759767	-650.9459228515626	341.2908935546876	77.26818084716798	-581.6393432617189	171.7005004882813	1348.080932617188	-658.8042602539064	174.299560546875	1203.671875	-674.0596923828126	-7.080855846405031	1409.339111328125	-571.3529663085939	-109.8842544555664	1255.649780273438	-577.7113037109376	-129.8750610351563	1193.27294921875	-570.2330932617189	-105.4427795410157	1201.229125976563	-614.6554565429689	-153.1107482910157	998.4134521484377	-642.9105834960939	-136.1682434082032	923.8567504882815	-623.5062255859376	-148.6324462890625	942.5620117187502	-668.1311035156251	-142.9987182617188	852.1910400390627	-719.0171508789064	-76.43788909912111	872.5632324218752	-757.7061157226564	337.8888549804688	1406.13623046875	-568.6544189453126	439.3204345703126	1260.616821289063	-540.2341918945314	449.7113037109376	1198.309814453125	-560.6780395507814	459.8369140625001	1205.133422851563	-510.6259765625001	500.0276184082032	986.479675292969	-535.0939941406251	531.8658447265626	934.9613037109377	-587.1335449218751	506.5841369628907	924.4732055664065	-545.9785766601564	526.2928466796876	843.7810668945315	-582.1661376953126	456.7658996582032	823.9387817382815	-619.7835083007814	
